<svg viewBox="0 0 42 34" fill="none" xmlns="http://www.w3.org/2000/svg">
  <path d="M22.5016 34V24.2857H28.502L21.0015 14.5714L13.501 24.2857H19.5014V34H12.0009V33.919C11.7488 33.9352 11.5088 34 11.2508 34C8.2669 34 5.40522 32.7207 3.29528 30.4434C1.18535 28.1662 0 25.0776 0 21.8571C0 15.627 4.36531 10.5497 9.96671 9.85352C10.4578 7.08266 11.8282 4.5831 13.8421 2.78476C15.856 0.986419 18.3876 0.00170976 21.0015 0C23.6157 0.0015791 26.1477 0.986171 28.1622 2.78447C30.1766 4.58277 31.5476 7.0824 32.0393 9.85352C37.6407 10.5497 42 15.627 42 21.8571C42 25.0776 40.8147 28.1662 38.7047 30.4434C36.5948 32.7207 33.7331 34 30.7492 34C30.4972 34 30.2542 33.9352 29.9991 33.919V34H22.5016Z" fill="#FFC60A"/>
</svg>
