<svg width="73" height="55" viewBox="0 0 73 55" fill="none" xmlns="http://www.w3.org/2000/svg">
  <path fill-rule="evenodd" clip-rule="evenodd" d="M45.8349 23.2875C41.0298 26.335 37.8403 31.7013 37.8403 37.8125C37.8403 47.3049 45.5354 55 55.0278 55C64.5202 55 72.2153 47.3049 72.2153 37.8125C72.2153 35.2488 71.654 32.8163 70.6477 30.631L60.3751 -1.24792e-05L42.8056 -1.40152e-05L45.8349 23.2875Z" fill="#23353F" fill-opacity="0.39"/>
  <path fill-rule="evenodd" clip-rule="evenodd" d="M8.78627 23.2875C3.98118 26.3351 0.791746 31.7013 0.791746 37.8125C0.791745 47.3049 8.48685 55 17.9792 55C27.4716 55 35.1667 47.3049 35.1667 37.8125C35.1667 35.2487 34.6054 32.816 33.5989 30.6307L23.3264 -1.24792e-05L5.757 -1.40152e-05L8.78627 23.2875Z" fill="#23353F" fill-opacity="0.39"/>
</svg>
