<svg width="187" height="144" viewBox="0 0 187 144" fill="none" xmlns="http://www.w3.org/2000/svg">
  <path fill-rule="evenodd" clip-rule="evenodd" d="M69.0688 83.0291C81.6495 75.05 90 61.0002 90 45C90 20.1472 69.8528 0 45 0C20.1472 0 0 20.1472 0 45C0 51.7123 1.46961 58.0813 4.10461 63.8028L31 144H77L69.0688 83.0291Z" fill="#23353F" fill-opacity="0.39"/>
  <path fill-rule="evenodd" clip-rule="evenodd" d="M166.069 83.0291C178.649 75.05 187 61.0002 187 45C187 20.1472 166.853 0 142 0C117.147 0 97 20.1472 97 45C97 51.7123 98.4696 58.0813 101.105 63.8028L128 144H174L166.069 83.0291Z" fill="#23353F" fill-opacity="0.39"/>
</svg>
